<svg width="30" height="18" viewBox="0 0 30 18" fill="none" xmlns="http://www.w3.org/2000/svg">
<path d="M28.7687 1.43672C28.9708 0.753125 28.7687 0.25 27.7965 0.25H24.5793C23.76 0.25 23.3831 0.682031 23.181 1.16328C23.181 1.16328 21.5423 5.16094 19.2264 7.75313C18.4781 8.50235 18.134 8.74297 17.7243 8.74297C17.5222 8.74297 17.2109 8.50234 17.2109 7.81875V1.43672C17.2109 0.616406 16.9815 0.25 16.3042 0.25H11.2462C10.7328 0.25 10.4269 0.632813 10.4269 0.988281C10.4269 1.76484 11.5849 1.94531 11.7051 4.13281V8.87969C11.7051 9.91875 11.5193 10.1102 11.1097 10.1102C10.0173 10.1102 7.36267 6.09609 5.78958 1.50234C5.47277 0.610938 5.16143 0.25 4.33665 0.25H1.11946C0.201825 0.25 0.0161133 0.682031 0.0161133 1.16328C0.0161133 2.01641 1.10854 6.25469 5.10135 11.8547C7.7614 15.6773 11.5084 17.75 14.9168 17.75C16.9651 17.75 17.2163 17.2906 17.2163 16.4977C17.2163 12.8445 17.0306 12.5 18.0575 12.5C18.5327 12.5 19.352 12.7406 21.2638 14.5836C23.4486 16.7711 23.8091 17.75 25.0326 17.75H28.2498C29.1675 17.75 29.6317 17.2906 29.3641 16.3828C28.7523 14.4742 24.6175 10.5477 24.4318 10.2852C23.9566 9.67266 24.0931 9.39922 24.4318 8.85235C24.4373 8.84688 28.3645 3.3125 28.7687 1.43672Z" fill="white"/>
</svg>
